<svg width="120" height="120" viewBox="0 0 120 120" fill="none" xmlns="http://www.w3.org/2000/svg">
<rect width="120" height="120" fill="#FF6A00"/>
<path d="M76.6208 60.8134C76.6208 60.8134 72.7861 43.5847 67.4554 39.3575C67.2461 39.1974 67.0363 39.0429 66.8281 38.8984C60.5868 34.5812 50.7816 37.8661 44.6014 46.2132C50.0081 40.9345 55.8695 39.7139 59.7304 42.0681C64.5376 45.0001 65.9543 61.4794 68.939 70.3172C71.6377 78.3075 75.9281 83.8434 84.4752 83.6964C91.0918 83.5826 93.6347 78.6664 93.6347 78.6664C82.9424 81.0286 79.6601 71.5399 76.6208 60.8134Z" fill="white"/>
<path d="M76.6208 60.8134C76.6208 60.8134 72.7861 43.5847 67.4554 39.3575C67.2461 39.1974 67.0363 39.0429 66.8281 38.8984C60.5868 34.5812 50.7816 37.8661 44.6014 46.2132C50.0081 40.9345 55.8695 39.7139 59.7304 42.0681C64.5376 45.0001 65.9543 61.4794 68.939 70.3172C71.6377 78.3075 75.9281 83.8434 84.4752 83.6964C91.0918 83.5826 93.6347 78.6664 93.6347 78.6664C82.9424 81.0286 79.6601 71.5399 76.6208 60.8134Z" fill="white"/>
<path d="M40.9308 79.1718C43.6444 79.1718 46.2018 78.607 48.4474 77.6089C47.4169 78.011 46.349 78.2688 45.2473 78.3322C41.9206 78.5229 32.001 77.6018 35.9816 61.568C37.5818 55.1216 40.8743 49.8519 44.6014 46.2132C50.7816 37.8661 60.5868 34.5812 66.8281 38.8984C67.0363 39.0429 67.2461 39.1974 67.4554 39.3575C65.926 37.7699 64.124 36.5383 61.9565 35.7998C48.9008 31.3512 25.6251 46.0184 24.8135 65.928C24.8069 66.0906 24.8056 66.2482 24.8015 66.4077C25.3487 73.5342 32.3585 79.1718 40.9308 79.1718Z" fill="white"/>
<path d="M40.9308 79.1718C43.6444 79.1718 46.2018 78.607 48.4474 77.6089C47.4169 78.011 46.349 78.2688 45.2473 78.3322C41.9206 78.5229 32.001 77.6018 35.9816 61.568C37.5818 55.1216 40.8743 49.8519 44.6014 46.2132C50.7816 37.8661 60.5868 34.5812 66.8281 38.8984C67.0363 39.0429 67.2461 39.1974 67.4554 39.3575C65.926 37.7699 64.124 36.5383 61.9565 35.7998C48.9008 31.3512 25.6251 46.0184 24.8135 65.928C24.8069 66.0906 24.8056 66.2482 24.8015 66.4077C25.3487 73.5342 32.3585 79.1718 40.9308 79.1718Z" fill="white"/>
<path d="M80.4526 37.2153C79.7345 38.2688 76.4527 43.178 72.8402 48.5598C72.8308 48.5352 72.8209 48.5115 72.8114 48.4869C68.3157 55.2298 64.0243 62.2088 58.9415 68.5329C56.2776 71.847 52.6804 75.9574 48.4474 77.6089C46.2018 78.607 43.6444 79.1718 40.9308 79.1718C32.3585 79.1718 25.3487 73.5342 24.8015 66.4077C24.2785 87.013 44.894 85.9811 50.2165 84.0251C56.9297 81.5577 62.6001 76.8901 67.5357 71.625C72.7301 66.0841 77.2759 59.9427 81.0694 53.3659C84.0552 48.1899 87.4703 43.2102 90.6341 38.1324C90.825 37.8268 91.0154 37.5208 91.2059 37.2153H80.4526Z" fill="white"/>
<path d="M80.4526 37.2153C79.7345 38.2688 76.4527 43.178 72.8402 48.5598C72.8308 48.5352 72.8209 48.5115 72.8114 48.4869C68.3157 55.2298 64.0243 62.2088 58.9415 68.5329C56.2776 71.847 52.6804 75.9574 48.4474 77.6089C46.2018 78.607 43.6444 79.1718 40.9308 79.1718C32.3585 79.1718 25.3487 73.5342 24.8015 66.4077C24.2785 87.013 44.894 85.9811 50.2165 84.0251C56.9297 81.5577 62.6001 76.8901 67.5357 71.625C72.7301 66.0841 77.2759 59.9427 81.0694 53.3659C84.0552 48.1899 87.4703 43.2102 90.6341 38.1324C90.825 37.8268 91.0154 37.5208 91.2059 37.2153H80.4526Z" fill="white"/>
</svg>
