<svg width="120" height="120" viewBox="0 0 120 120" fill="none" xmlns="http://www.w3.org/2000/svg">
<rect width="120" height="120" fill="#FF6A00"/>
<path d="M77.2646 60.8134C77.2646 60.8134 73.3977 43.5847 68.0221 39.3575C67.8111 39.1974 67.5996 39.0429 67.3896 38.8984C61.0959 34.5812 51.2082 37.8661 44.9761 46.2132C50.4282 40.9345 56.3389 39.7139 60.2323 42.0681C65.0798 45.0001 66.5085 61.4794 69.5183 70.3172C72.2396 78.3075 76.5661 83.8434 85.185 83.6964C91.8572 83.5826 94.4215 78.6664 94.4215 78.6664C83.6393 81.0286 80.3295 71.5399 77.2646 60.8134Z" fill="white"/>
<path d="M77.2646 60.8134C77.2646 60.8134 73.3977 43.5847 68.0221 39.3575C67.8111 39.1974 67.5996 39.0429 67.3896 38.8984C61.0959 34.5812 51.2082 37.8661 44.9761 46.2132C50.4282 40.9345 56.3389 39.7139 60.2323 42.0681C65.0798 45.0001 66.5085 61.4794 69.5183 70.3172C72.2396 78.3075 76.5661 83.8434 85.185 83.6964C91.8572 83.5826 94.4215 78.6664 94.4215 78.6664C83.6393 81.0286 80.3295 71.5399 77.2646 60.8134Z" fill="white"/>
<path d="M41.2747 79.1718C44.0111 79.1718 46.5899 78.607 48.8544 77.6089C47.8152 78.011 46.7384 78.2688 45.6275 78.3322C42.2728 78.5229 32.2698 77.6018 36.2839 61.568C37.8976 55.1216 41.2177 49.8519 44.9761 46.2132C51.2082 37.8661 61.0959 34.5812 67.3896 38.8984C67.5996 39.0429 67.8111 39.1974 68.0221 39.3575C66.48 37.7699 64.6628 36.5383 62.477 35.7998C49.3117 31.3512 25.8404 46.0184 25.022 65.928C25.0153 66.0906 25.014 66.2482 25.0099 66.4077C25.5617 73.5342 32.6304 79.1718 41.2747 79.1718Z" fill="white"/>
<path d="M41.2747 79.1718C44.0111 79.1718 46.5899 78.607 48.8544 77.6089C47.8152 78.011 46.7384 78.2688 45.6275 78.3322C42.2728 78.5229 32.2698 77.6018 36.2839 61.568C37.8976 55.1216 41.2177 49.8519 44.9761 46.2132C51.2082 37.8661 61.0959 34.5812 67.3896 38.8984C67.5996 39.0429 67.8111 39.1974 68.0221 39.3575C66.48 37.7699 64.6628 36.5383 62.477 35.7998C49.3117 31.3512 25.8404 46.0184 25.022 65.928C25.0153 66.0906 25.014 66.2482 25.0099 66.4077C25.5617 73.5342 32.6304 79.1718 41.2747 79.1718Z" fill="white"/>
<path d="M81.1285 37.2153C80.4045 38.2688 77.0951 43.178 73.4522 48.5598C73.4427 48.5352 73.4327 48.5115 73.4232 48.4869C68.8897 55.2298 64.5623 62.2088 59.4367 68.5329C56.7504 71.847 53.123 75.9574 48.8544 77.6089C46.5899 78.607 44.0111 79.1718 41.2747 79.1718C32.6304 79.1718 25.5617 73.5342 25.0099 66.4077C24.4825 87.013 45.2712 85.9811 50.6384 84.0251C57.408 81.5577 63.1261 76.8901 68.1031 71.625C73.3412 66.0841 77.9252 59.9427 81.7506 53.3659C84.7614 48.1899 88.2053 43.2102 91.3957 38.1324C91.5882 37.8268 91.7802 37.5208 91.9722 37.2153H81.1285Z" fill="white"/>
<path d="M81.1285 37.2153C80.4045 38.2688 77.0951 43.178 73.4522 48.5598C73.4427 48.5352 73.4327 48.5115 73.4232 48.4869C68.8897 55.2298 64.5623 62.2088 59.4367 68.5329C56.7504 71.847 53.123 75.9574 48.8544 77.6089C46.5899 78.607 44.0111 79.1718 41.2747 79.1718C32.6304 79.1718 25.5617 73.5342 25.0099 66.4077C24.4825 87.013 45.2712 85.9811 50.6384 84.0251C57.408 81.5577 63.1261 76.8901 68.1031 71.625C73.3412 66.0841 77.9252 59.9427 81.7506 53.3659C84.7614 48.1899 88.2053 43.2102 91.3957 38.1324C91.5882 37.8268 91.7802 37.5208 91.9722 37.2153H81.1285Z" fill="white"/>
</svg>
