<svg xmlns="http://www.w3.org/2000/svg" width="121" height="120" fill="none"><rect width="120" height="120" x="1" fill="#FF6A00" rx="10"/><path fill="#FF6A00" d="M40.072 57.713s-1.486-6.534-3.55-8.138a6.528 6.528 0 0 0-.243-.174c-2.417-1.637-6.214-.391-8.608 2.775 2.094-2.003 4.364-2.465 5.86-1.573 1.861 1.112 2.41 7.363 3.566 10.715 1.045 3.03 2.706 5.13 6.016 5.075 2.563-.044 3.547-1.908 3.547-1.908-4.14.896-5.411-2.703-6.588-6.772Z"/><path fill="#fff" d="M40.072 57.713s-1.486-6.534-3.55-8.138a6.528 6.528 0 0 0-.243-.174c-2.417-1.637-6.214-.391-8.608 2.775 2.094-2.003 4.364-2.465 5.86-1.573 1.861 1.112 2.41 7.363 3.566 10.715 1.045 3.03 2.706 5.13 6.016 5.075 2.563-.044 3.547-1.908 3.547-1.908-4.14.896-5.411-2.703-6.588-6.772Z"/><path fill="#FF6A00" d="M26.25 64.676c1.051 0 2.041-.214 2.911-.592-.4.152-.813.25-1.24.274-1.288.072-5.13-.277-3.588-6.359.62-2.445 1.895-4.443 3.339-5.823 2.393-3.166 6.19-4.412 8.607-2.775.08.055.162.114.243.174a5.315 5.315 0 0 0-2.13-1.349c-5.055-1.687-14.07 3.876-14.384 11.427l-.004.182c.212 2.703 2.926 4.841 6.246 4.841Z"/><path fill="#fff" d="M26.25 64.676c1.051 0 2.041-.214 2.911-.592-.4.152-.813.25-1.24.274-1.288.072-5.13-.277-3.588-6.359.62-2.445 1.895-4.443 3.339-5.823 2.393-3.166 6.19-4.412 8.607-2.775.08.055.162.114.243.174a5.315 5.315 0 0 0-2.13-1.349c-5.055-1.687-14.07 3.876-14.384 11.427l-.004.182c.212 2.703 2.926 4.841 6.246 4.841Z"/><path fill="#FF6A00" d="M41.555 48.763c-.278.4-1.549 2.261-2.948 4.303l-.01-.028c-1.742 2.558-3.404 5.205-5.372 7.603-1.032 1.257-2.425 2.816-4.064 3.443-.87.378-1.86.592-2.91.592-3.32 0-6.035-2.138-6.247-4.84-.203 7.814 7.78 7.423 9.842 6.681 2.6-.936 4.796-2.706 6.707-4.703a37.671 37.671 0 0 0 5.241-6.925c1.157-1.964 2.48-3.852 3.704-5.778l.222-.348h-4.165Z"/><path fill="#fff" d="M41.555 48.763c-.278.4-1.549 2.261-2.948 4.303l-.01-.028c-1.742 2.558-3.404 5.205-5.372 7.603-1.032 1.257-2.425 2.816-4.064 3.443-.87.378-1.86.592-2.91.592-3.32 0-6.035-2.138-6.247-4.84-.203 7.814 7.78 7.423 9.842 6.681 2.6-.936 4.796-2.706 6.707-4.703a37.671 37.671 0 0 0 5.241-6.925c1.157-1.964 2.48-3.852 3.704-5.778l.222-.348h-4.165ZM61.12 39h3.037v26.954H61.12v-3.055a7.298 7.298 0 0 1-2.476 2.552c-1.036.646-2.253.97-3.651.97a9.252 9.252 0 0 1-3.687-.737 9.84 9.84 0 0 1-3.037-2.03 9.773 9.773 0 0 1-2.042-3.02 9.104 9.104 0 0 1-.741-3.665c0-1.306.247-2.528.74-3.666a9.499 9.499 0 0 1 2.043-3.018 9.686 9.686 0 0 1 3.037-2.049 9.25 9.25 0 0 1 3.687-.737c1.398 0 2.615.324 3.651.97a7.297 7.297 0 0 1 2.476 2.552V39ZM55.03 63.492c1.193 0 2.223-.288 3.09-.863a5.735 5.735 0 0 0 2.025-2.372c.482-.994.723-2.09.723-3.288 0-1.222-.24-2.324-.723-3.306-.482-.994-1.163-1.78-2.042-2.354-.868-.587-1.892-.88-3.073-.88-1.193 0-2.277.293-3.254.88a6.635 6.635 0 0 0-2.313 2.372c-.578.982-.868 2.078-.868 3.288s.296 2.312.886 3.306a6.782 6.782 0 0 0 2.35 2.354 6.19 6.19 0 0 0 3.199.863ZM66.685 65.954V39h3.037v26.954h-3.037ZM80.032 66.42c-1.662 0-3.18-.424-4.554-1.275a9.59 9.59 0 0 1-3.272-3.414c-.807-1.438-1.211-3.025-1.211-4.762 0-1.318.235-2.546.705-3.684a9.62 9.62 0 0 1 1.934-3.018 9.072 9.072 0 0 1 2.892-2.049 8.48 8.48 0 0 1 3.506-.737c1.362 0 2.61.276 3.742.827a8.443 8.443 0 0 1 2.928 2.264 9.564 9.564 0 0 1 1.826 3.378c.41 1.282.56 2.654.451 4.115H74.23c.145 1.018.482 1.929 1.013 2.732.53.79 1.205 1.419 2.024 1.886.831.467 1.753.707 2.765.719 1.085 0 2.067-.276 2.947-.827.88-.563 1.59-1.33 2.132-2.3l3.091.72a9.484 9.484 0 0 1-3.271 3.916c-1.458 1.007-3.091 1.51-4.899 1.51ZM74.14 55.694h11.785a5.863 5.863 0 0 0-.976-2.749 6.388 6.388 0 0 0-2.115-2.013 5.427 5.427 0 0 0-2.802-.754c-1.012 0-1.94.245-2.783.736a6.272 6.272 0 0 0-2.097 1.995 6.524 6.524 0 0 0-1.012 2.785ZM90.218 65.954v-17.97h3.036v2.247a6.89 6.89 0 0 1 2.422-1.995 6.841 6.841 0 0 1 3.182-.755c.698 0 1.373.09 2.024.27l-1.23 3.019a4.859 4.859 0 0 0-3.94.431 4.93 4.93 0 0 0-1.789 1.761 4.725 4.725 0 0 0-.669 2.48v10.512h-3.036ZM25.169 81c-.63 0-1.242-.097-1.838-.29a4.788 4.788 0 0 1-1.545-.828 2.886 2.886 0 0 1-.927-1.289l.686-.265c.15.421.415.777.799 1.067.383.285.824.501 1.322.649a5.25 5.25 0 0 0 1.503.222c.612 0 1.184-.103 1.717-.307.532-.21.961-.507 1.287-.888.332-.381.498-.828.498-1.34 0-.523-.171-.95-.515-1.28-.337-.336-.775-.6-1.313-.794-.533-.2-1.09-.35-1.674-.453a14.117 14.117 0 0 1-2.173-.563c-.635-.233-1.139-.56-1.51-.981-.367-.427-.55-1.002-.55-1.724 0-.666.194-1.244.584-1.733.395-.49.913-.868 1.554-1.135a5.429 5.429 0 0 1 2.095-.401c.6 0 1.196.093 1.785.281a4.56 4.56 0 0 1 1.554.82c.452.358.779.799.979 1.323l-.704.247a2.224 2.224 0 0 0-.798-1.058 4.007 4.007 0 0 0-1.314-.658 5.253 5.253 0 0 0-1.502-.222 4.65 4.65 0 0 0-1.726.316c-.527.21-.953.507-1.28.888-.326.381-.489.825-.489 1.332 0 .58.152 1.03.455 1.348.31.319.724.56 1.245.726.527.159 1.125.301 1.795.426a10.13 10.13 0 0 1 2.077.606c.647.262 1.168.615 1.563 1.059.4.438.6.981.6 1.63 0 .666-.197 1.243-.592 1.733-.395.489-.915.867-1.562 1.135a5.363 5.363 0 0 1-2.086.401ZM39.974 68.829v.734H35.62v11.215h-.739V69.563h-4.335v-.734h9.427ZM41.69 80.778v-11.95h3.803c.635 0 1.207.151 1.717.453.515.302.921.714 1.219 1.238.297.517.446 1.1.446 1.75a3.42 3.42 0 0 1-.395 1.647c-.263.49-.62.887-1.073 1.195a3.241 3.241 0 0 1-1.494.554l2.97 5.113h-.858l-2.962-5.07h-2.635v5.07h-.739Zm.738-5.804h3.03a2.66 2.66 0 0 0 1.348-.35c.407-.239.73-.563.97-.973.24-.415.361-.882.361-1.4 0-.523-.12-.99-.36-1.4a2.603 2.603 0 0 0-.97-.972 2.61 2.61 0 0 0-1.349-.359h-3.03v5.454ZM54.796 68.829h1.013l4.379 11.95h-.781l-1.022-2.792h-6.156l-1.021 2.791h-.79l4.378-11.95Zm-2.3 8.424h5.614l-2.807-7.656-2.808 7.656ZM69.57 68.829v.734h-4.352v11.215h-.739V69.563h-4.336v-.734h9.427ZM71.286 80.778v-11.95h7.203v.735h-6.465v4.447h5.443v.734h-5.443v5.3h6.465v.734h-7.203ZM85.737 81a5.61 5.61 0 0 1-2.31-.478 6.037 6.037 0 0 1-1.888-1.34 6.423 6.423 0 0 1-1.27-1.972 6.365 6.365 0 0 1-.456-2.407 6.284 6.284 0 0 1 1.743-4.387 6.052 6.052 0 0 1 1.889-1.331 5.571 5.571 0 0 1 2.292-.478c.95 0 1.837.222 2.662.665a5.988 5.988 0 0 1 2.06 1.793l-.661.367a5.172 5.172 0 0 0-1.829-1.545 4.862 4.862 0 0 0-2.232-.546c-.721 0-1.396.145-2.026.435a5.198 5.198 0 0 0-1.648 1.187 5.549 5.549 0 0 0-1.511 3.84c0 .746.134 1.448.403 2.109.269.66.641 1.243 1.116 1.75.475.5 1.027.893 1.657 1.177.63.285 1.3.427 2.01.427.634 0 1.233-.111 1.793-.333a5.174 5.174 0 0 0 1.511-.939 5.395 5.395 0 0 0 1.117-1.391 5.27 5.27 0 0 0 .618-1.699H86.99v-.7h4.637a5.987 5.987 0 0 1-.55 2.254c-.32.7-.75 1.314-1.288 1.844a6.062 6.062 0 0 1-1.845 1.246 5.467 5.467 0 0 1-2.207.452ZM100.133 68.829H101l-4.01 6.53v5.42h-.738v-5.42l-4-6.53h.867l3.502 5.718 3.512-5.718Z"/></svg>