<svg width="121" height="120" viewBox="0 0 121 120" fill="none" xmlns="http://www.w3.org/2000/svg">
<ellipse cx="60.5" cy="60" rx="60.5" ry="60" fill="#FF6A00"/>
<path d="M78.0498 60.8134C78.0498 60.8134 74.1829 43.5847 68.8073 39.3575C68.5963 39.1974 68.3847 39.0429 68.1747 38.8984C61.881 34.5812 51.9934 37.8661 45.7612 46.2132C51.2134 40.9345 57.124 39.7139 61.0174 42.0681C65.865 45.0001 67.2936 61.4794 70.3034 70.3172C73.0247 78.3075 77.3512 83.8434 85.9701 83.6964C92.6424 83.5826 95.2066 78.6664 95.2066 78.6664C84.4245 81.0286 81.1146 71.5399 78.0498 60.8134Z" fill="white"/>
<path d="M78.0498 60.8134C78.0498 60.8134 74.1829 43.5847 68.8073 39.3575C68.5963 39.1974 68.3847 39.0429 68.1747 38.8984C61.881 34.5812 51.9934 37.8661 45.7612 46.2132C51.2134 40.9345 57.124 39.7139 61.0174 42.0681C65.865 45.0001 67.2936 61.4794 70.3034 70.3172C73.0247 78.3075 77.3512 83.8434 85.9701 83.6964C92.6424 83.5826 95.2066 78.6664 95.2066 78.6664C84.4245 81.0286 81.1146 71.5399 78.0498 60.8134Z" fill="white"/>
<path d="M42.0599 79.1718C44.7963 79.1718 47.3751 78.607 49.6396 77.6089C48.6004 78.011 47.5235 78.2688 46.4126 78.3322C43.058 78.5229 33.055 77.6018 37.0691 61.568C38.6827 55.1216 42.0028 49.8519 45.7612 46.2132C51.9934 37.8661 61.881 34.5812 68.1747 38.8984C68.3847 39.0429 68.5963 39.1974 68.8073 39.3575C67.2651 37.7699 65.4479 36.5383 63.2622 35.7998C50.0968 31.3512 26.6256 46.0184 25.8071 65.928C25.8005 66.0906 25.7991 66.2482 25.795 66.4077C26.3468 73.5342 33.4155 79.1718 42.0599 79.1718Z" fill="white"/>
<path d="M42.0599 79.1718C44.7963 79.1718 47.3751 78.607 49.6396 77.6089C48.6004 78.011 47.5235 78.2688 46.4126 78.3322C43.058 78.5229 33.055 77.6018 37.0691 61.568C38.6827 55.1216 42.0028 49.8519 45.7612 46.2132C51.9934 37.8661 61.881 34.5812 68.1747 38.8984C68.3847 39.0429 68.5963 39.1974 68.8073 39.3575C67.2651 37.7699 65.4479 36.5383 63.2622 35.7998C50.0968 31.3512 26.6256 46.0184 25.8071 65.928C25.8005 66.0906 25.7991 66.2482 25.795 66.4077C26.3468 73.5342 33.4155 79.1718 42.0599 79.1718Z" fill="white"/>
<path d="M81.9137 37.2153C81.1896 38.2688 77.8803 43.178 74.2374 48.5598C74.2279 48.5352 74.2179 48.5115 74.2084 48.4869C69.6749 55.2298 65.3474 62.2088 60.2219 68.5329C57.5356 71.847 53.9082 75.9574 49.6396 77.6089C47.3751 78.607 44.7963 79.1718 42.0599 79.1718C33.4155 79.1718 26.3468 73.5342 25.795 66.4077C25.2676 87.013 46.0564 85.9811 51.4236 84.0251C58.1931 81.5577 63.9113 76.8901 68.8883 71.625C74.1264 66.0841 78.7104 59.9427 82.5358 53.3659C85.5466 48.1899 88.9905 43.2102 92.1808 38.1324C92.3733 37.8268 92.5654 37.5208 92.7574 37.2153H81.9137Z" fill="white"/>
<path d="M81.9137 37.2153C81.1896 38.2688 77.8803 43.178 74.2374 48.5598C74.2279 48.5352 74.2179 48.5115 74.2084 48.4869C69.6749 55.2298 65.3474 62.2088 60.2219 68.5329C57.5356 71.847 53.9082 75.9574 49.6396 77.6089C47.3751 78.607 44.7963 79.1718 42.0599 79.1718C33.4155 79.1718 26.3468 73.5342 25.795 66.4077C25.2676 87.013 46.0564 85.9811 51.4236 84.0251C58.1931 81.5577 63.9113 76.8901 68.8883 71.625C74.1264 66.0841 78.7104 59.9427 82.5358 53.3659C85.5466 48.1899 88.9905 43.2102 92.1808 38.1324C92.3733 37.8268 92.5654 37.5208 92.7574 37.2153H81.9137Z" fill="white"/>
</svg>
